<?xml version="1.0" encoding="utf-8"?>
<!-- Generator: Adobe Illustrator 27.6.1, SVG Export Plug-In . SVG Version: 6.00 Build 0)  -->
<svg version="1.1" id="Layer_1" xmlns="http://www.w3.org/2000/svg" xmlns:xlink="http://www.w3.org/1999/xlink" x="0px" y="0px"
	 viewBox="0 0 250 250" style="enable-background:new 0 0 250 250;" xml:space="preserve">
<style type="text/css">
	.st0{fill:#FAFAFA;}
</style>
<path class="st0" d="M125,0C56,0,0,56,0,125c0,69,56,125,125,125c69,0,125-56,125-125C250,56,194,0,125,0z M224.7,125
	c0,14.8-3.2,28.8-9,41.4L137.5,26.1C186.6,32.2,224.7,74.2,224.7,125z M185.9,163.2H64.1L125,54L185.9,163.2z M112.5,26.1
	L34.3,166.4c-5.8-12.6-9-26.6-9-41.4C25.3,74.2,63.4,32.2,112.5,26.1z M125,224.7c-31.3,0-59.2-14.5-77.5-37h155
	C184.2,210.3,156.3,224.7,125,224.7z"/>
</svg>
